{
  "asset": {
    "generator": "Khronos glTF Blender I/O v1.5.17",
    "version": "2.0"
  },
  "scene": 0,
  "scenes": [
    {
      "name": "Scene",
      "nodes": [
        0
      ]
    }
  ],
  "nodes": [
    {
      "mesh": 0,
      "name": "sphere_gltf"
    }
  ],
  "materials": [
    {
      "doubleSided": true,
      "name": "castle_brick_broken_06",
      "normalTexture": {
        "index": 0
      },
      "pbrMetallicRoughness": {
        "baseColorTexture": {
          "index": 1
        },
        "metallicFactor": 0,
        "metallicRoughnessTexture": {
          "index": 2
        }
      }
    }
  ],
  "meshes": [
    {
      "name": "Sphere.001",
      "primitives": [
        {
          "attributes": {
            "POSITION": 0,
            "NORMAL": 1,
            "TEXCOORD_0": 2
          },
          "indices": 3,
          "material": 0
        }
      ]
    }
  ],
  "textures": [
    {
      "sampler": 0,
      "source": 0
    },
    {
      "sampler": 0,
      "source": 1
    },
    {
      "sampler": 0,
      "source": 2
    }
  ],
  "images": [
    {
      "mimeType": "image/jpeg",
      "name": "castle_brick_broken_06_nor_gl_4k",
      "uri": "textures/castle_brick_broken_06_nor_gl_4k.jpg"
    },
    {
      "mimeType": "image/jpeg",
      "name": "castle_brick_broken_06_diff_4k",
      "uri": "textures/castle_brick_broken_06_diff_4k.jpg"
    },
    {
      "mimeType": "image/jpeg",
      "name": "castle_brick_broken_06_rough_4k",
      "uri": "textures/castle_brick_broken_06_rough_4k.jpg"
    }
  ],
  "accessors": [
    {
      "bufferView": 0,
      "componentType": 5126,
      "count": 53922,
      "max": [
        1.256856083869934,
        1.2560075521469116,
        1.256042718887329
      ],
      "min": [
        -1.2568554878234863,
        -1.2558069229125977,
        -1.2560627460479736
      ],
      "type": "VEC3"
    },
    {
      "bufferView": 1,
      "componentType": 5126,
      "count": 53922,
      "type": "VEC3"
    },
    {
      "bufferView": 2,
      "componentType": 5126,
      "count": 53922,
      "type": "VEC2"
    },
    {
      "bufferView": 3,
      "componentType": 5123,
      "count": 322170,
      "type": "SCALAR"
    }
  ],
  "bufferViews": [
    {
      "buffer": 0,
      "byteLength": 647064,
      "byteOffset": 0
    },
    {
      "buffer": 0,
      "byteLength": 647064,
      "byteOffset": 647064
    },
    {
      "buffer": 0,
      "byteLength": 431376,
      "byteOffset": 1294128
    },
    {
      "buffer": 0,
      "byteLength": 644340,
      "byteOffset": 1725504
    }
  ],
  "samplers": [
    {
      "magFilter": 9729,
      "minFilter": 9987
    }
  ],
  "buffers": [
    {
      "byteLength": 2369844,
      "uri": "castle_brick_broken_06.bin"
    }
  ]
}